:FULLY-SPECIFIED
:FORCE-ALL-JOINTS-BE-3DOF
:DEGREES
985
root 1.1123 15.1535 32.4977 5.39881 -4.78359 364.112
lfemur 8.75099 1.87619 5.18411
ltibia 2.09008e-14 0 0
lfoot -30.1022 -11.7563 0
ltoes -33.8305 0 0
rfemur -33.0246 -15.7247 -6.19585
rtibia 50.8006 0 0
rfoot -22.7596 5.2028 0
rtoes -42.0836 0 0
lowerback -1.50962 -0.383061 0.680784
upperback -0.766965 -0.517535 -5.89523
thorax -0.00396606 -0.276802 -6.50828
lowerneck -6.71463 1.18158 5.81527
upperneck 1.05918 0.994866 3.36594
head 1.47526 0.6003 0.105256
lclavicle -6.68771e-15 6.36111e-15 0
lhumerus -58.2806 -44.9476 114.776
lradius 55.0008 0 0
lwrist 24.9715 0 0
lhand 37.2867 24.467 0
lfingers 7.12502 0 0
lthumb 60.1103 38.1304 0
rclavicle -6.68771e-15 6.36111e-15 0
rhumerus 3.84974 -24.9827 0.00464429
rradius 28.0382 0 0
rwrist -11.3662 0 0
rhand -31.5282 -44.8018 0
rfingers 7.12502 0 0
rthumb -4.79321 -794.727 0
986
root 1.11614 15.1548 32.4912 5.35577 -4.73549 364.104
lfemur 8.74259 1.81666 5.18178
ltibia 2.02949e-14 0 0
lfoot -30.1068 -11.7226 0
ltoes -33.8622 0 0
rfemur -32.9436 -15.6787 -6.21202
rtibia 50.7423 0 0
rfoot -22.7396 5.11291 0
rtoes -42.1419 0 0
lowerback -1.50226 -0.375193 0.677061
upperback -0.7488 -0.506124 -5.88096
thorax 0.012245 -0.27032 -6.49075
lowerneck -6.73969 1.17717 5.81851
upperneck 1.11208 0.984406 3.36331
head 1.49662 0.597052 0.103851
lclavicle -8.53358e-15 4.24074e-15 0
lhumerus -58.2752 -45.0113 114.807
lradius 55.0138 0 0
lwrist 24.9705 0 0
lhand 37.2684 24.4377 0
lfingers 7.12502 0 0
lthumb 60.0947 38.1178 0
rclavicle -8.53358e-15 4.24074e-15 0
rhumerus 3.81498 -24.914 -0.0562471
rradius 28.0136 0 0
rwrist -11.2892 0 0
rhand -31.5005 -44.6858 0
rfingers 7.12502 0 0
rthumb -4.76645 -794.612 0
987
root 1.11997 15.156 32.4846 5.31274 -4.68738 364.096
lfemur 8.7342 1.75713 5.17945
ltibia 1.96891e-14 0 0
lfoot -30.1113 -11.6889 0
ltoes -33.8939 0 0
rfemur -32.8625 -15.6328 -6.22819
rtibia 50.6839 0 0
rfoot -22.7197 5.02302 0
rtoes -42.2002 0 0
lowerback -1.4949 -0.367326 0.673338
upperback -0.730634 -0.494714 -5.8667
thorax 0.028456 -0.263837 -6.47323
lowerneck -6.76476 1.17275 5.82175
upperneck 1.16498 0.973947 3.36069
head 1.51799 0.593805 0.102447
lclavicle -1.03794e-14 2.12037e-15 0
lhumerus -58.2697 -45.075 114.838
lradius 55.0268 0 0
lwrist 24.9696 0 0
lhand 37.2502 24.4083 0
lfingers 7.12502 0 0
lthumb 60.0792 38.1051 0
rclavicle -1.03794e-14 2.12037e-15 0
rhumerus 3.78023 -24.8452 -0.117139
rradius 27.989 0 0
rwrist -11.2121 0 0
rhand -31.4728 -44.5697 0
rfingers 7.12502 0 0
rthumb -4.7397 -794.496 0
988
root 1.1238 15.1573 32.4781 5.2697 -4.63928 364.088
lfemur 8.7258 1.6976 5.17712
ltibia 1.90833e-14 0 0
lfoot -30.1159 -11.6552 0
ltoes -33.9256 0 0
rfemur -32.7814 -15.5868 -6.24436
rtibia 50.6256 0 0
rfoot -22.6997 4.93313 0
rtoes -42.2585 0 0
lowerback -1.48754 -0.359459 0.669615
upperback -0.712469 -0.483304 -5.85243
thorax 0.0446671 -0.257355 -6.4557
lowerneck -6.78983 1.16834 5.82499
upperneck 1.21788 0.963487 3.35806
head 1.53935 0.590558 0.101043
lclavicle -1.22253e-14 0 0
lhumerus -58.2643 -45.1387 114.869
lradius 55.0398 0 0
lwrist 24.9687 0 0
lhand 37.2319 24.379 0
lfingers 7.12502 0 0
lthumb 60.0636 38.0924 0
rclavicle -1.22253e-14 0 0
rhumerus 3.74548 -24.7764 -0.17803
rradius 27.9644 0 0
rwrist -11.1351 0 0
rhand -31.4451 -44.4536 0
rfingers 7.12502 0 0
rthumb -4.71295 -794.381 0
989
root 1.12471 15.1576 32.4753 5.25225 -4.59285 364.069
lfemur 8.71018 1.64977 5.19713
ltibia 1.56756e-14 0 0
lfoot -30.1153 -11.6267 0
ltoes -33.9423 0 0
rfemur -32.7336 -15.5965 -6.23465
rtibia 50.6012 0 0
rfoot -22.696 4.90147 0
rtoes -42.3001 0 0
lowerback -1.47897 -0.35254 0.658561
upperback -0.706079 -0.473744 -5.85189
thorax 0.0476276 -0.252326 -6.44858
lowerneck -6.80881 1.16067 5.8338
upperneck 1.23531 0.94992 3.36642
head 1.54827 0.584851 0.101846
lclavicle -1.1752e-14 -9.08729e-16 0
lhumerus -58.2857 -45.1964 114.899
lradius 55.0645 0 0
lwrist 24.9747 0 0
lhand 37.2254 24.3893 0
lfingers 7.12502 0 0
lthumb 60.0581 38.1084 0
rclavicle -1.1752e-14 -9.08729e-16 0
rhumerus 3.71044 -24.7379 -0.168062
rradius 27.9544 0 0
rwrist -11.117 0 0
rhand -31.4193 -44.4015 0
rfingers 7.12502 0 0
rthumb -4.68807 -794.329 0
990
root 1.12562 15.158 32.4725 5.2348 -4.54642 364.05
lfemur 8.69456 1.60195 5.21714
ltibia 1.22678e-14 0 0
lfoot -30.1148 -11.5982 0
ltoes -33.959 0 0
rfemur -32.6858 -15.6063 -6.22494
rtibia 50.5769 0 0
rfoot -22.6922 4.86981 0
rtoes -42.3418 0 0
lowerback -1.47041 -0.345621 0.647508
upperback -0.699689 -0.464184 -5.85134
thorax 0.0505881 -0.247297 -6.44145
lowerneck -6.82778 1.15301 5.84261
upperneck 1.25273 0.936353 3.37478
head 1.55719 0.579144 0.102648
lclavicle -1.12787e-14 -1.81746e-15 0
lhumerus -58.3072 -45.2542 114.928
lradius 55.0893 0 0
lwrist 24.9808 0 0
lhand 37.219 24.3995 0
lfingers 7.12502 0 0
lthumb 60.0526 38.1245 0
rclavicle -1.12787e-14 -1.81746e-15 0
rhumerus 3.67539 -24.6995 -0.158095
rradius 27.9443 0 0
rwrist -11.0989 0 0
rhand -31.3936 -44.3494 0
rfingers 7.12502 0 0
rthumb -4.66318 -794.278 0
991
root 1.12653 15.1583 32.4697 5.21734 -4.49998 364.031
lfemur 8.67894 1.55412 5.23715
ltibia 8.86009e-15 0 0
lfoot -30.1142 -11.5697 0
ltoes -33.9757 0 0
rfemur -32.638 -15.616 -6.21523
rtibia 50.5525 0 0
rfoot -22.6885 4.83815 0
rtoes -42.3834 0 0
lowerback -1.46184 -0.338703 0.636454
upperback -0.693298 -0.454625 -5.8508
thorax 0.0535487 -0.242268 -6.43433
lowerneck -6.84676 1.14534 5.85142
upperneck 1.27016 0.922786 3.38314
head 1.56611 0.573437 0.103451
lclavicle -1.08054e-14 -2.72619e-15 0
lhumerus -58.3286 -45.3119 114.958
lradius 55.114 0 0
lwrist 24.9868 0 0
lhand 37.2125 24.4098 0
lfingers 7.12502 0 0
lthumb 60.047 38.1405 0
rclavicle -1.08054e-14 -2.72619e-15 0
rhumerus 3.64035 -24.661 -0.148127
rradius 27.9343 0 0
rwrist -11.0808 0 0
rhand -31.3678 -44.2973 0
rfingers 7.12502 0 0
rthumb -4.6383 -794.226 0
992
root 1.12744 15.1587 32.4669 5.19989 -4.45355 364.011
lfemur 8.66332 1.5063 5.25716
ltibia 5.45235e-15 0 0
lfoot -30.1136 -11.5412 0
ltoes -33.9924 0 0
rfemur -32.5902 -15.6258 -6.20552
rtibia 50.5282 0 0
rfoot -22.6847 4.80649 0
rtoes -42.4251 0 0
lowerback -1.45327 -0.331784 0.625401
upperback -0.686908 -0.445065 -5.85026
thorax 0.0565092 -0.237239 -6.4272
lowerneck -6.86574 1.13768 5.86022
upperneck 1.28758 0.909219 3.3915
head 1.57503 0.56773 0.104253
lclavicle -1.03321e-14 -3.63491e-15 0
lhumerus -58.35 -45.3697 114.987
lradius 55.1388 0 0
lwrist 24.9929 0 0
lhand 37.2061 24.42 0
lfingers 7.12502 0 0
lthumb 60.0415 38.1566 0
rclavicle -1.03321e-14 -3.63491e-15 0
rhumerus 3.60531 -24.6226 -0.138159
rradius 27.9242 0 0
rwrist -11.0626 0 0
rhand -31.342 -44.2453 0
rfingers 7.12502 0 0
rthumb -4.61341 -794.175 0
993
root 1.12835 15.159 32.4641 5.18244 -4.40712 363.992
lfemur 8.6477 1.45847 5.27717
ltibia 2.04461e-15 0 0
lfoot -30.113 -11.5127 0
ltoes -34.0091 0 0
rfemur -32.5424 -15.6355 -6.19581
rtibia 50.5038 0 0
rfoot -22.681 4.77483 0
rtoes -42.4667 0 0
lowerback -1.4447 -0.324865 0.614347
upperback -0.680518 -0.435505 -5.84972
thorax 0.0594697 -0.23221 -6.42008
lowerneck -6.88471 1.13001 5.86903
upperneck 1.30501 0.895652 3.39986
head 1.58395 0.562023 0.105056
lclavicle -9.8588e-15 -4.54364e-15 0
lhumerus -58.3714 -45.4274 115.017
lradius 55.1635 0 0
lwrist 24.9989 0 0
lhand 37.1996 24.4303 0
lfingers 7.12502 0 0
lthumb 60.036 38.1726 0
rclavicle -9.8588e-15 -4.54364e-15 0
rhumerus 3.57027 -24.5841 -0.128191
rradius 27.9142 0 0
rwrist -11.0445 0 0
rhand -31.3162 -44.1932 0
rfingers 7.12502 0 0
rthumb -4.58853 -794.123 0
994
root 1.12925 15.1594 32.4614 5.16499 -4.36069 363.973
lfemur 8.63207 1.41065 5.29717
ltibia -1.36313e-15 0 0
lfoot -30.1125 -11.4843 0
ltoes -34.0258 0 0
rfemur -32.4945 -15.6453 -6.1861
rtibia 50.4794 0 0
rfoot -22.6773 4.74317 0
rtoes -42.5084 0 0
lowerback -1.43614 -0.317946 0.603294
upperback -0.674128 -0.425945 -5.84917
thorax 0.0624302 -0.227181 -6.41296
lowerneck -6.90369 1.12234 5.87784
upperneck 1.32243 0.882085 3.40822
head 1.59287 0.556316 0.105859
lclavicle -9.38551e-15 -5.45237e-15 0
lhumerus -58.3929 -45.4852 115.047
lradius 55.1882 0 0
lwrist 25.0049 0 0
lhand 37.1932 24.4405 0
lfingers 7.12502 0 0
lthumb 60.0305 38.1887 0
rclavicle -9.38551e-15 -5.45237e-15 0
rhumerus 3.53522 -24.5457 -0.118224
rradius 27.9041 0 0
rwrist -11.0264 0 0
rhand -31.2905 -44.1411 0
rfingers 7.12502 0 0
rthumb -4.56364 -794.072 0
995
root 1.13016 15.1597 32.4586 5.14754 -4.31426 363.954
lfemur 8.61645 1.36282 5.31718
ltibia -4.77087e-15 0 0
lfoot -30.1119 -11.4558 0
ltoes -34.0425 0 0
rfemur -32.4467 -15.655 -6.17639
rtibia 50.4551 0 0
rfoot -22.6735 4.71151 0
rtoes -42.55 0 0
lowerback -1.42757 -0.311028 0.59224
upperback -0.667738 -0.416385 -5.84863
thorax 0.0653907 -0.222152 -6.40583
lowerneck -6.92267 1.11468 5.88665
upperneck 1.33986 0.868518 3.41658
head 1.60179 0.550609 0.106661
lclavicle -8.91221e-15 -6.3611e-15 0
lhumerus -58.4143 -45.5429 115.076
lradius 55.213 0 0
lwrist 25.011 0 0
lhand 37.1867 24.4508 0
lfingers 7.12502 0 0
lthumb 60.025 38.2047 0
rclavicle -8.91221e-15 -6.3611e-15 0
rhumerus 3.50018 -24.5072 -0.108256
rradius 27.8941 0 0
rwrist -11.0083 0 0
rhand -31.2647 -44.089 0
rfingers 7.12502 0 0
rthumb -4.53876 -794.02 0
996
root 1.13107 15.1601 32.4558 5.13008 -4.26782 363.935
lfemur 8.60083 1.31499 5.33719
ltibia -8.1786e-15 0 0
lfoot -30.1113 -11.4273 0
ltoes -34.0592 0 0
rfemur -32.3989 -15.6647 -6.16668
rtibia 50.4307 0 0
rfoot -22.6698 4.67985 0
rtoes -42.5917 0 0
lowerback -1.419 -0.304109 0.581186
upperback -0.661347 -0.406826 -5.84809
thorax 0.0683513 -0.217123 -6.39871
lowerneck -6.94164 1.10701 5.89546
upperneck 1.35728 0.854951 3.42494
head 1.61071 0.544902 0.107464
lclavicle -8.43891e-15 -7.26983e-15 0
lhumerus -58.4357 -45.6007 115.106
lradius 55.2377 0 0
lwrist 25.017 0 0
lhand 37.1803 24.461 0
lfingers 7.12502 0 0
lthumb 60.0194 38.2207 0
rclavicle -8.43891e-15 -7.26983e-15 0
rhumerus 3.46514 -24.4688 -0.0982884
rradius 27.8841 0 0
rwrist -10.9902 0 0
rhand -31.2389 -44.0369 0
rfingers 7.12502 0 0
rthumb -4.51388 -793.968 0
997
root 1.13198 15.1604 32.453 5.11263 -4.22139 363.916
lfemur 8.58521 1.26717 5.3572
ltibia -1.15863e-14 0 0
lfoot -30.1108 -11.3988 0
ltoes -34.0759 0 0
rfemur -32.3511 -15.6745 -6.15697
rtibia 50.4063 0 0
rfoot -22.6661 4.64819 0
rtoes -42.6333 0 0
lowerback -1.41044 -0.29719 0.570133
upperback -0.654957 -0.397266 -5.84754
thorax 0.0713118 -0.212094 -6.39159
lowerneck -6.96062 1.09934 5.90427
upperneck 1.37471 0.841384 3.4333
head 1.61963 0.539195 0.108267
lclavicle -7.96561e-15 -8.17856e-15 0
lhumerus -58.4572 -45.6584 115.136
lradius 55.2624 0 0
lwrist 25.023 0 0
lhand 37.1738 24.4713 0
lfingers 7.12502 0 0
lthumb 60.0139 38.2368 0
rclavicle -7.96561e-15 -8.17856e-15 0
rhumerus 3.43009 -24.4303 -0.0883207
rradius 27.874 0 0
rwrist -10.9721 0 0
rhand -31.2132 -43.9848 0
rfingers 7.12502 0 0
rthumb -4.48899 -793.917 0
998
root 1.13289 15.1608 32.4502 5.09518 -4.17496 363.897
lfemur 8.56959 1.21934 5.37721
ltibia -1.49941e-14 0 0
lfoot -30.1102 -11.3703 0
ltoes -34.0926 0 0
rfemur -32.3033 -15.6842 -6.14726
rtibia 50.382 0 0
rfoot -22.6623 4.61653 0
rtoes -42.675 0 0
lowerback -1.40187 -0.290271 0.559079
upperback -0.648567 -0.387706 -5.847
thorax 0.0742723 -0.207065 -6.38446
lowerneck -6.9796 1.09168 5.91308
upperneck 1.39213 0.827817 3.44166
head 1.62855 0.533488 0.109069
lclavicle -7.49231e-15 -9.08729e-15 0
lhumerus -58.4786 -45.7162 115.165
lradius 55.2872 0 0
lwrist 25.0291 0 0
lhand 37.1674 24.4815 0
lfingers 7.12502 0 0
lthumb 60.0084 38.2528 0
rclavicle -7.49231e-15 -9.08729e-15 0
rhumerus 3.39505 -24.3919 -0.078353
rradius 27.864 0 0
rwrist -10.954 0 0
rhand -31.1874 -43.9327 0
rfingers 7.12502 0 0
rthumb -4.46411 -793.865 0
